<svg width="128" height="48" viewBox="0 0 128 48" fill="none" xmlns="http://www.w3.org/2000/svg">
<path fill-rule="evenodd" clip-rule="evenodd" d="M6.11915 29.5331C21.2291 22.7917 26.1647 33.0939 41.4736 31.6487C48.0055 31.0306 52.8321 28.7249 52.8037 25.8344C52.709 16.1027 23.6732 14.3532 23.5974 19.0883C23.5595 21.2514 29.6035 24.2513 36.6327 24.6886C40.0952 24.9026 45.6703 23.4716 38.6742 22.2878C37.7174 22.1594 37.3859 20.9329 38.139 20.3339C40.2847 18.6319 46.9587 21.2609 46.9776 23.7283C47.006 27.5744 39.5268 28.2114 33.156 27.5411C24.7248 26.6568 10.6995 18.9789 22.6785 13.7066C33.966 8.73856 58.033 16.5115 57.3177 26.7282C56.9956 31.3444 52.2069 32.8562 47.1529 34.0162C32.4266 37.3964 20.5281 26.286 8.44011 33.227C1.15986 37.4059 -0.407975 32.4426 6.11915 29.5331Z" fill="#FACC15"/>
<path d="M70.9685 16.6257C70.0734 16.6257 69.3451 16.3978 68.7835 15.9422C68.2219 15.4865 67.9411 14.8468 67.9411 14.0231C67.9411 13.1644 68.2482 12.4458 68.8625 11.8675C69.4943 11.2892 70.3191 11 71.337 11C72.197 11 72.9165 11.2278 73.4957 11.6835C74.0748 12.1216 74.3644 12.7613 74.3644 13.6025C74.3644 14.4788 74.0485 15.2061 73.4167 15.7844C72.8024 16.3453 71.9864 16.6257 70.9685 16.6257ZM65.2033 36C64.4662 36 63.8256 35.9124 63.2815 35.7371C62.7375 35.5619 62.3075 35.3165 61.9916 35.0011C61.5529 34.5629 61.3335 34.0109 61.3335 33.3449C61.3335 32.9593 61.4037 32.5913 61.5441 32.2408C61.6669 31.8903 61.8073 31.5924 61.9653 31.347C62.1232 31.1192 62.2198 31.014 62.2549 31.0315C62.3953 31.1192 62.5971 31.198 62.8603 31.2681C63.106 31.3558 63.3342 31.3996 63.5448 31.3996C63.808 31.3996 64.0186 31.312 64.1766 31.1367C64.3345 30.979 64.4574 30.6898 64.5452 30.2692L66.6512 20.3849C66.8793 19.2808 67.204 18.5096 67.6252 18.0715C68.0639 17.6334 68.687 17.4143 69.4943 17.4143H70.1261C70.9334 17.4143 71.6003 17.5896 72.1268 17.9401C72.6533 18.273 72.9165 18.8163 72.9165 19.5699C72.9165 19.7277 72.8814 19.9993 72.8112 20.3849L70.5736 30.8212C70.1875 32.6264 69.5908 33.9408 68.7835 34.7645C67.9762 35.5882 66.7828 36 65.2033 36Z" fill="white"/>
<path d="M76.9714 31.0841C75.7604 31.0841 74.8303 30.7424 74.1809 30.0589C73.5491 29.3579 73.2332 28.3677 73.2332 27.0883C73.2332 26.4749 73.3122 25.8002 73.4702 25.0641L74.4705 20.3849C74.6987 19.2808 75.0233 18.5096 75.4445 18.0715C75.8833 17.6334 76.5063 17.4143 77.3136 17.4143H77.9454C78.7527 17.4143 79.4196 17.5896 79.9461 17.9401C80.4726 18.273 80.7359 18.8163 80.7359 19.5699C80.7359 19.7277 80.7008 19.9993 80.6306 20.3849L79.7355 24.3281C79.6653 24.5559 79.6302 24.7925 79.6302 25.0379C79.6302 25.3884 79.718 25.6688 79.8935 25.8791C80.0865 26.0719 80.3585 26.1682 80.7095 26.1682C80.9552 26.1682 81.1658 26.1332 81.3413 26.0631C81.5168 25.9755 81.7011 25.844 81.8942 25.6688L83.0261 20.3849C83.2543 19.2808 83.579 18.5096 84.0002 18.0715C84.4389 17.6334 85.0619 17.4143 85.8692 17.4143H86.501C87.3084 17.4143 87.9753 17.5896 88.5018 17.9401C89.0283 18.273 89.2915 18.8163 89.2915 19.5699C89.2915 19.7277 89.2564 19.9993 89.1862 20.3849L87.791 26.9043C87.6857 27.395 87.633 27.8069 87.633 28.1399C87.633 28.5254 87.7032 28.8321 87.8436 29.0599C87.984 29.2702 88.2034 29.4455 88.5018 29.5857C88.5369 29.6208 88.4491 29.7697 88.2385 30.0326C88.0455 30.2955 87.712 30.5321 87.2382 30.7424C86.7643 30.9702 86.1413 31.0841 85.3691 31.0841C83.9826 31.0841 82.991 30.6898 82.3943 29.9012C82.096 29.4981 81.9029 28.9898 81.8152 28.3764C81.1658 29.2527 80.4551 29.9274 79.6829 30.4006C78.9107 30.8563 78.0068 31.0841 76.9714 31.0841Z" fill="white"/>
<path d="M103.495 20.1746C103.495 20.7354 103.355 21.2173 103.074 21.6204C102.811 22.006 102.328 22.4616 101.626 22.9874L97.2036 26.1945H99.3359C101.266 26.1945 102.232 26.843 102.232 28.1399C102.232 28.5254 102.161 28.9197 102.021 29.3228C101.898 29.7084 101.749 30.0414 101.574 30.3218C101.416 30.6022 101.31 30.7424 101.258 30.7424H90.596C90.4907 30.7424 90.3152 30.6109 90.0695 30.3481C89.8414 30.0852 89.6308 29.7522 89.4377 29.3491C89.2622 28.946 89.1745 28.5342 89.1745 28.1136C89.1745 27.5528 89.3061 27.0796 89.5694 26.694C89.8502 26.2909 90.3416 25.8265 91.0436 25.3007L95.4662 22.0936H93.8867C91.9562 22.0936 90.9909 21.4451 90.9909 20.1483C90.9909 19.7627 91.0523 19.3771 91.1752 18.9916C91.3156 18.5885 91.4648 18.2468 91.6227 17.9664C91.7982 17.6859 91.9123 17.5457 91.9649 17.5457H102.074C102.179 17.5457 102.346 17.6772 102.574 17.9401C102.82 18.2029 103.03 18.5359 103.206 18.939C103.399 19.3421 103.495 19.7539 103.495 20.1746Z" fill="white"/>
<path d="M117.192 20.1746C117.192 20.7354 117.051 21.2173 116.77 21.6204C116.507 22.006 116.024 22.4616 115.322 22.9874L110.9 26.1945H113.032C114.963 26.1945 115.928 26.843 115.928 28.1399C115.928 28.5254 115.858 28.9197 115.717 29.3228C115.594 29.7084 115.445 30.0414 115.27 30.3218C115.112 30.6022 115.007 30.7424 114.954 30.7424H104.292C104.187 30.7424 104.011 30.6109 103.766 30.3481C103.538 30.0852 103.327 29.7522 103.134 29.3491C102.958 28.946 102.871 28.5342 102.871 28.1136C102.871 27.5528 103.002 27.0796 103.266 26.694C103.546 26.2909 104.038 25.8265 104.74 25.3007L109.162 22.0936H107.583C105.652 22.0936 104.687 21.4451 104.687 20.1483C104.687 19.7627 104.749 19.3771 104.871 18.9916C105.012 18.5885 105.161 18.2468 105.319 17.9664C105.494 17.6859 105.609 17.5457 105.661 17.5457H115.77C115.875 17.5457 116.042 17.6772 116.27 17.9401C116.516 18.2029 116.726 18.5359 116.902 18.939C117.095 19.3421 117.192 19.7539 117.192 20.1746Z" fill="white"/>
<path d="M121.016 24.775C120.384 24.775 119.945 24.6348 119.7 24.3544C119.471 24.0564 119.322 23.4956 119.252 22.6719L118.831 16.9148C118.743 15.7406 119.033 14.8468 119.7 14.2334C120.384 13.62 121.332 13.3134 122.543 13.3134C123.754 13.3134 124.684 13.5412 125.333 13.9968C126 14.4525 126.333 15.0747 126.333 15.8633C126.333 16.4066 126.167 17.0025 125.833 17.6509L123.043 23.0662C122.709 23.7147 122.402 24.1616 122.121 24.4069C121.858 24.6523 121.49 24.775 121.016 24.775ZM119.542 30.979C118.682 30.979 118.059 30.83 117.673 30.5321C117.286 30.2341 117.093 29.7434 117.093 29.0599C117.093 28.6043 117.172 28.1048 117.33 27.5615C117.488 27.0182 117.743 26.5713 118.094 26.2208C118.339 25.9755 118.62 25.809 118.936 25.7213C119.27 25.6162 119.822 25.5636 120.595 25.5636C121.455 25.5636 122.078 25.7126 122.464 26.0105C122.85 26.3084 123.043 26.7992 123.043 27.4826C123.043 27.9383 122.964 28.4378 122.806 28.9811C122.648 29.5244 122.394 29.9713 122.043 30.3218C121.797 30.5671 121.507 30.7336 121.174 30.8212C120.858 30.9264 120.314 30.979 119.542 30.979Z" fill="white"/>
</svg>
